<svg xmlns="http://www.w3.org/2000/svg"  viewBox="0 0 64 64" width="1600px" height="1600px"><linearGradient id="T2qsZC3CrVx9TTTLmm3bRa" x1="37" x2="37" y1="34.617" y2="32.36" gradientTransform="matrix(1 0 0 -1 0 66)" gradientUnits="userSpaceOnUse"><stop offset="0" stop-color="#6dc7ff"/><stop offset="1" stop-color="#e6abff"/></linearGradient><path fill="url(#T2qsZC3CrVx9TTTLmm3bRa)" d="M37,31c-1.105,0-2,0.895-2,2s0.895,2,2,2s2-0.895,2-2S38.105,31,37,31z"/><linearGradient id="T2qsZC3CrVx9TTTLmm3bRb" x1="27" x2="27" y1="34.617" y2="32.36" gradientTransform="matrix(1 0 0 -1 0 66)" gradientUnits="userSpaceOnUse"><stop offset="0" stop-color="#6dc7ff"/><stop offset="1" stop-color="#e6abff"/></linearGradient><path fill="url(#T2qsZC3CrVx9TTTLmm3bRb)" d="M27,31c-1.105,0-2,0.895-2,2s0.895,2,2,2s2-0.895,2-2S28.105,31,27,31z"/><linearGradient id="T2qsZC3CrVx9TTTLmm3bRc" x1="32" x2="32" y1="37.255" y2="40.66" gradientUnits="userSpaceOnUse"><stop offset="0" stop-color="#6dc7ff"/><stop offset="1" stop-color="#e6abff"/></linearGradient><path fill="url(#T2qsZC3CrVx9TTTLmm3bRc)" d="M29,38c0,1.656,1.344,3,3,3s3-1.344,3-3v-1h-6V38z"/><linearGradient id="T2qsZC3CrVx9TTTLmm3bRd" x1="32" x2="32" y1="5.596" y2="58.359" gradientUnits="userSpaceOnUse"><stop offset="0" stop-color="#1a6dff"/><stop offset="1" stop-color="#c822ff"/></linearGradient><path fill="url(#T2qsZC3CrVx9TTTLmm3bRd)" d="M53.965,11.598C55.748,10.833,57,9.06,57,7c0-0.552-0.447-1-1-1H44	c-1.757,0-3.236,1.146-3.772,2.724C37.908,7.02,35.067,6,32,6c-3.081,0-5.919,1.015-8.232,2.711C23.229,7.14,21.752,6,20,6H8	C7.448,6,7,6.448,7,7c0,2.06,1.252,3.833,3.036,4.598C10.332,14.074,12.445,16,15,16h3.617c-0.253,0.847-0.446,1.721-0.534,2.63	c-2.284,0.904-4.09,2.695-5.011,4.998c-0.124,0.308-0.086,0.657,0.1,0.932S13.668,25,14,25h2v2.142c-1.72,0.447-3,2-3,3.858	c0,2.206,1.794,4,4,4h1.16c0.142,0.983,0.384,1.931,0.72,2.838C13.384,41.26,10,47.292,10,53.798V58h44v-4.202	c0-6.496-3.388-12.539-8.88-15.96c0.335-0.906,0.578-1.855,0.72-2.838H47c2.206,0,4-1.794,4-4c0-1.858-1.279-3.411-3-3.858V25h3	c0.332,0,0.642-0.165,0.828-0.439c0.186-0.275,0.224-0.624,0.101-0.932c-1.051-2.624-3.326-4.61-6.046-5.327	c-0.096-0.793-0.279-1.557-0.504-2.302H49C51.555,16,53.668,14.074,53.965,11.598z M44,8h10.829c-0.413,1.164-1.525,2-2.829,2h-4v2	h3.828c-0.413,1.164-1.525,2-2.828,2h-4.184C44.928,13.686,45,13.352,45,13c0-1.654-1.346-3-3-3C42,8.897,42.897,8,44,8z M42,14	c-0.552,0-1-0.449-1-1s0.448-1,1-1s1,0.449,1,1S42.552,14,42,14z M22,14c-0.551,0-1-0.449-1-1s0.449-1,1-1s1,0.449,1,1	S22.551,14,22,14z M12.172,12H16v-2h-4c-1.304,0-2.416-0.836-2.829-2H20c1.103,0,2,0.897,2,2c-1.654,0-3,1.346-3,3	c0,0.352,0.072,0.686,0.184,1H15C13.696,14,12.585,13.164,12.172,12z M22.816,25c-0.414,1.161-1.514,2-2.816,2v-0.009	C19.985,26.992,19.973,27,19.957,27H18v-2H22.816z M20,33v-4c1.882,0,3.504-1.057,4.357-2.597C25.27,27.38,26.561,28,28,28	c1.642,0,3.088-0.807,4-2.033C32.912,27.193,34.358,28,36,28c1.439,0,2.73-0.62,3.643-1.597C40.496,27.943,42.118,29,44,29v4	c0,6.617-5.383,12-12,12C25.383,45,20,39.617,20,33z M36,26c-0.882,0-1.665-0.391-2.211-1h4.423C37.665,25.609,36.882,26,36,26z M28,26c-0.882,0-1.665-0.391-2.211-1h4.423C29.665,25.609,28.882,26,28,26z M17,33c-1.103,0-2-0.897-2-2s0.897-2,2-2h1v4H17z M19.698,39.678C22.074,44.036,26.697,47,32,47c3.986,0,7.579-1.682,10.131-4.364C40.258,47.518,35.533,51,30,51H16	c-1.51,0-2.888,0.565-3.944,1.489C12.465,47.275,15.292,42.524,19.698,39.678z M52,53.798V56H12.142c0.447-1.721,2-3,3.858-3h14	c7.574,0,13.837-5.647,14.843-12.949C49.29,43.179,52,48.307,52,53.798z M49,31c0,1.103-0.897,2-2,2h-1v-4h1	C48.103,29,49,29.897,49,31z M46,27h-1.912c-0.031,0-0.057-0.015-0.088-0.018V27c-0.475,0-0.919-0.121-1.319-0.319l-1.362-1.362	c-0.051-0.103-0.095-0.209-0.135-0.319H46V27z M43.958,19.19c0.031,0.461,0.374,0.841,0.829,0.919	c1.85,0.316,3.489,1.381,4.543,2.891H15.663c0.868-1.259,2.132-2.203,3.624-2.676c0.03-0.008,0.061-0.018,0.088-0.027	c0.378-0.138,0.637-0.489,0.657-0.891c0.059-1.193,0.295-2.334,0.674-3.406H22c1.654,0,3-1.346,3-3c0-0.801-0.32-1.525-0.833-2.063	C26.271,9.11,29.005,8,32,8c2.979,0,5.714,1.117,7.823,2.948C39.316,11.485,39,12.205,39,13c0,1.654,1.346,3,3,3h1.292	C43.65,17.008,43.883,18.076,43.958,19.19z"/></svg>